<svg width="363" height="316" viewBox="0 0 363 316" fill="none" xmlns="http://www.w3.org/2000/svg">
<mask id="mask0_9_63" style="mask-type:alpha" maskUnits="userSpaceOnUse" x="83" y="186" width="247" height="130">
<rect x="83" y="186" width="247" height="130" fill="#D9D9D9"/>
</mask>
<g mask="url(#mask0_9_63)">
<circle cx="191" cy="186" r="108" fill="#F0B44A"/>
</g>
<mask id="mask1_9_63" style="mask-type:alpha" maskUnits="userSpaceOnUse" x="83" y="78" width="216" height="216">
<circle cx="191" cy="186" r="108" fill="#F0B44A"/>
</mask>
<g mask="url(#mask1_9_63)">
<path d="M154 265.5C220.5 316.5 272.5 283 294 217.5C294 217.5 221.5 260 154 265.5Z" fill="#FBCB60"/>
</g>
<path d="M94 177.5C-21 218 16.1061 298.974 225 230C384 177.5 384.5 116.5 282 131.5L94 177.5Z" fill="#602195"/>
<path d="M58.5 71.5C62 103 125.554 23.3172 112 85.5C100.666 137.5 94.5 182 91.5 204.5C94.5 236.5 310.318 194.855 290 148C260.73 80.5 126 -16 103 2.49996C90.8658 12.2601 80.5 38.5 58.5 71.5Z" fill="#7A32B3"/>
<mask id="mask2_9_63" style="mask-type:alpha" maskUnits="userSpaceOnUse" x="58" y="0" width="234" height="216">
<path d="M58.5 71.5C62 103 125.554 23.3172 112 85.5C100.666 137.5 94.5 182 91.5 204.5C94.5 236.5 310.318 194.855 290 148C260.73 80.5 126 -16 103 2.49996C90.8658 12.2601 80.5 38.5 58.5 71.5Z" fill="#7A32B3"/>
</mask>
<g mask="url(#mask2_9_63)">
<path d="M63 78C74.1667 65.3333 99.7 40 112.5 40C128.5 40 128.5 58 126 85C124 106.6 116.167 152.667 112.5 173C109.7 187.8 106.667 213.833 106 220.5C106 220.833 98.8 223.3 90 220.5C79 217 58.5 215 46 183C36 157.4 53.1667 102.333 63 78Z" fill="#6926A2"/>
</g>
<path d="M144.189 139.96C144.754 137.285 148.311 136.699 149.705 139.051L156.342 150.247C156.949 151.272 158.105 151.84 159.287 151.696L172.438 150.089C175.224 149.749 176.91 153.08 174.985 155.124L166.215 164.435C165.366 165.336 165.158 166.666 165.691 167.783L171.131 179.197C172.32 181.691 169.791 184.33 167.249 183.248L154.926 178.005C153.856 177.55 152.619 177.754 151.752 178.528L141.765 187.451C139.705 189.291 136.462 187.604 136.788 184.86L138.275 172.304C138.421 171.075 137.797 169.883 136.704 169.302L125.408 163.3C122.929 161.982 123.456 158.286 126.204 157.714L139.175 155.012C140.34 154.769 141.252 153.86 141.498 152.695L144.189 139.96Z" fill="#FEFCFF"/>
<path d="M223.275 109.49C223.65 106.652 227.407 105.9 228.844 108.376L234.449 118.033C235.067 119.098 236.272 119.677 237.49 119.494L248.153 117.888C250.824 117.486 252.625 120.543 250.977 122.684L243.803 132.005C243.114 132.9 242.986 134.107 243.473 135.126L248.63 145.942C249.837 148.474 247.219 151.131 244.67 149.96L235.19 145.605C234.009 145.062 232.614 145.341 231.733 146.296L224.657 153.961C222.754 156.022 219.315 154.577 219.456 151.776L220.058 139.808C220.115 138.68 219.533 137.616 218.553 137.054L208.346 131.208C206.002 129.866 206.488 126.351 209.109 125.695L219.569 123.077C220.764 122.778 221.654 121.78 221.815 120.559L223.275 109.49Z" fill="#FEFCFF"/>
<path d="M25.096 68.4997C26.0267 64.3276 31.9733 64.3276 32.904 68.4997L34.6548 76.3476C34.9628 77.7283 35.9773 78.8436 37.3227 79.2808L46.2932 82.1958C49.9783 83.3933 49.9783 88.6067 46.2932 89.8042L37.3227 92.7192C35.9773 93.1564 34.9628 94.2717 34.6548 95.6524L32.904 103.5C31.9733 107.672 26.0267 107.672 25.096 103.5L23.3452 95.6524C23.0372 94.2717 22.0227 93.1564 20.6773 92.7192L11.7068 89.8042C8.02174 88.6067 8.02174 83.3933 11.7068 82.1958L20.6773 79.2808C22.0227 78.8436 23.0372 77.7283 23.3452 76.3476L25.096 68.4997Z" fill="#F8CA68"/>
<path d="M341.527 68.1202C341.993 64.653 347.007 64.6531 347.473 68.1202L348.183 73.3978C348.331 74.5037 349.082 75.4358 350.13 75.8173L355.252 77.6808C357.884 78.6386 357.884 82.3614 355.252 83.3192L350.13 85.1827C349.082 85.5642 348.331 86.4963 348.183 87.6022L347.473 92.8798C347.007 96.347 341.993 96.3469 341.527 92.8798L340.817 87.6022C340.669 86.4963 339.918 85.5642 338.87 85.1827L333.748 83.3192C331.116 82.3614 331.116 78.6386 333.748 77.6808L338.87 75.8173C339.918 75.4358 340.669 74.5037 340.817 73.3978L341.527 68.1202Z" fill="#F8CA68"/>
<path d="M288.102 19.8883C289.057 15.7543 294.943 15.7543 295.898 19.8883L297.849 28.3448C298.168 29.7267 299.195 30.8364 300.548 31.2614L309.851 34.1838C313.586 35.3571 313.586 40.6429 309.851 41.8162L300.548 44.7386C299.195 45.1636 298.168 46.2733 297.849 47.6552L295.898 56.1117C294.943 60.2457 289.057 60.2457 288.102 56.1117L286.151 47.6552C285.832 46.2733 284.805 45.1636 283.452 44.7386L274.149 41.8162C270.414 40.6429 270.414 35.3571 274.149 34.1838L283.452 31.2614C284.805 30.8364 285.832 29.7267 286.151 28.3448L288.102 19.8883Z" fill="#F8CA68"/>
<path d="M43.5357 136.036C44.0628 132.652 48.9372 132.652 49.4643 136.036L50.2935 141.362C50.4578 142.417 51.1702 143.305 52.1644 143.694L59.8619 146.706C62.4041 147.701 62.4041 151.299 59.8619 152.294L52.1644 155.306C51.1703 155.695 50.4578 156.583 50.2935 157.638L49.4643 162.964C48.9372 166.348 44.0628 166.348 43.5357 162.964L42.7065 157.638C42.5422 156.583 41.8298 155.695 40.8356 155.306L33.1381 152.294C30.5959 151.299 30.5959 147.701 33.1381 146.706L40.8356 143.694C41.8297 143.305 42.5422 142.417 42.7065 141.362L43.5357 136.036Z" fill="#F8CA68"/>
<path d="M168.23 58.887C168.809 56.1622 172.465 55.6284 173.799 58.074L180.639 70.6207C181.217 71.6806 182.374 72.2908 183.575 72.1693L197.719 70.7386C200.471 70.4602 202.101 73.738 200.219 75.7648L190.458 86.2757C189.645 87.1512 189.429 88.4257 189.908 89.5202L195.678 102.703C196.793 105.248 194.147 107.809 191.639 106.614L178.837 100.512C177.74 99.9888 176.436 100.179 175.535 100.994L165.011 110.501C162.95 112.364 159.683 110.666 160.023 107.908L161.784 93.6262C161.93 92.4404 161.358 91.2809 160.329 90.6743L147.97 83.3929C145.587 81.9888 146.212 78.3817 148.929 77.8616L162.891 75.1891C164.077 74.9622 165.011 74.0466 165.262 72.8658L168.23 58.887Z" fill="#FEFCFF"/>
</svg>
